<mxfile host="Electron" modified="2023-05-22T07:11:30.799Z" agent="Mozilla/5.0 (Windows NT 10.0; Win64; x64) AppleWebKit/537.36 (KHTML, like Gecko) draw.io/21.1.2 Chrome/106.0.5249.199 Electron/21.4.3 Safari/537.36" etag="ZDAgwWB37YpoxHo1JQRL" version="21.1.2" type="device">
  <diagram name="第 1 页" id="YtFQPeGC1CvswgXycj43">
    <mxGraphModel dx="1886" dy="983" grid="1" gridSize="10" guides="1" tooltips="1" connect="1" arrows="1" fold="1" page="1" pageScale="1" pageWidth="1169" pageHeight="1654" math="0" shadow="0">
      <root>
        <mxCell id="0" />
        <mxCell id="1" parent="0" />
        <mxCell id="xY4XzJ5lwj2ipkfOj-Ym-1" value="ProjectGenerationController" style="rounded=0;whiteSpace=wrap;html=1;sketch=1;hachureGap=4;jiggle=2;curveFitting=1;fontFamily=Architects Daughter;fontSource=https%3A%2F%2Ffonts.googleapis.com%2Fcss%3Ffamily%3DArchitects%2BDaughter;fontSize=20;fillColor=#d5e8d4;strokeColor=#82b366;" vertex="1" parent="1">
          <mxGeometry x="260" y="170" width="290" height="70" as="geometry" />
        </mxCell>
        <mxCell id="xY4XzJ5lwj2ipkfOj-Ym-2" value="DefaultProjectGenerationController" style="rounded=0;whiteSpace=wrap;html=1;sketch=1;hachureGap=4;jiggle=2;curveFitting=1;fontFamily=Architects Daughter;fontSource=https%3A%2F%2Ffonts.googleapis.com%2Fcss%3Ffamily%3DArchitects%2BDaughter;fontSize=20;" vertex="1" parent="1">
          <mxGeometry x="10" y="380" width="360" height="70" as="geometry" />
        </mxCell>
        <mxCell id="xY4XzJ5lwj2ipkfOj-Ym-4" value="&amp;lt;&amp;lt;interface&amp;gt;&amp;gt;&lt;br&gt;InitializrMetadataProvider" style="rounded=0;whiteSpace=wrap;html=1;sketch=1;hachureGap=4;jiggle=2;curveFitting=1;fontFamily=Architects Daughter;fontSource=https%3A%2F%2Ffonts.googleapis.com%2Fcss%3Ffamily%3DArchitects%2BDaughter;fontSize=20;" vertex="1" parent="1">
          <mxGeometry x="680" y="250" width="250" height="70" as="geometry" />
        </mxCell>
        <mxCell id="xY4XzJ5lwj2ipkfOj-Ym-5" value="Use" style="endArrow=open;endSize=12;dashed=1;html=1;rounded=0;sketch=1;hachureGap=4;jiggle=2;curveFitting=1;fontFamily=Architects Daughter;fontSource=https%3A%2F%2Ffonts.googleapis.com%2Fcss%3Ffamily%3DArchitects%2BDaughter;fontSize=16;sourcePerimeterSpacing=8;targetPerimeterSpacing=8;curved=1;" edge="1" parent="1" source="xY4XzJ5lwj2ipkfOj-Ym-1" target="xY4XzJ5lwj2ipkfOj-Ym-4">
          <mxGeometry width="160" relative="1" as="geometry">
            <mxPoint x="550" y="280" as="sourcePoint" />
            <mxPoint x="710" y="280" as="targetPoint" />
          </mxGeometry>
        </mxCell>
        <mxCell id="xY4XzJ5lwj2ipkfOj-Ym-6" value="Use" style="endArrow=open;endSize=12;dashed=1;html=1;rounded=0;sketch=1;hachureGap=4;jiggle=2;curveFitting=1;fontFamily=Architects Daughter;fontSource=https%3A%2F%2Ffonts.googleapis.com%2Fcss%3Ffamily%3DArchitects%2BDaughter;fontSize=16;sourcePerimeterSpacing=8;targetPerimeterSpacing=8;curved=1;" edge="1" parent="1" source="xY4XzJ5lwj2ipkfOj-Ym-1" target="xY4XzJ5lwj2ipkfOj-Ym-7">
          <mxGeometry width="160" relative="1" as="geometry">
            <mxPoint x="568" y="189" as="sourcePoint" />
            <mxPoint x="680" y="270" as="targetPoint" />
          </mxGeometry>
        </mxCell>
        <mxCell id="xY4XzJ5lwj2ipkfOj-Ym-7" value="ProjectGenerationInvoker" style="rounded=0;whiteSpace=wrap;html=1;sketch=1;hachureGap=4;jiggle=2;curveFitting=1;fontFamily=Architects Daughter;fontSource=https%3A%2F%2Ffonts.googleapis.com%2Fcss%3Ffamily%3DArchitects%2BDaughter;fontSize=20;" vertex="1" parent="1">
          <mxGeometry x="680" y="440" width="250" height="70" as="geometry" />
        </mxCell>
        <mxCell id="xY4XzJ5lwj2ipkfOj-Ym-8" value="CustomProjectGenerationController" style="rounded=0;whiteSpace=wrap;html=1;sketch=1;hachureGap=4;jiggle=2;curveFitting=1;fontFamily=Architects Daughter;fontSource=https%3A%2F%2Ffonts.googleapis.com%2Fcss%3Ffamily%3DArchitects%2BDaughter;fontSize=20;" vertex="1" parent="1">
          <mxGeometry x="250" y="470" width="360" height="70" as="geometry" />
        </mxCell>
        <mxCell id="xY4XzJ5lwj2ipkfOj-Ym-9" value="Extends" style="endArrow=block;endSize=16;endFill=0;html=1;rounded=0;sketch=1;hachureGap=4;jiggle=2;curveFitting=1;fontFamily=Architects Daughter;fontSource=https%3A%2F%2Ffonts.googleapis.com%2Fcss%3Ffamily%3DArchitects%2BDaughter;fontSize=16;sourcePerimeterSpacing=8;targetPerimeterSpacing=8;curved=1;" edge="1" parent="1" source="xY4XzJ5lwj2ipkfOj-Ym-2" target="xY4XzJ5lwj2ipkfOj-Ym-1">
          <mxGeometry width="160" relative="1" as="geometry">
            <mxPoint x="70" y="320" as="sourcePoint" />
            <mxPoint x="230" y="320" as="targetPoint" />
          </mxGeometry>
        </mxCell>
        <mxCell id="xY4XzJ5lwj2ipkfOj-Ym-10" value="Extends" style="endArrow=block;endSize=16;endFill=0;html=1;rounded=0;sketch=1;hachureGap=4;jiggle=2;curveFitting=1;fontFamily=Architects Daughter;fontSource=https%3A%2F%2Ffonts.googleapis.com%2Fcss%3Ffamily%3DArchitects%2BDaughter;fontSize=16;sourcePerimeterSpacing=8;targetPerimeterSpacing=8;curved=1;" edge="1" parent="1" source="xY4XzJ5lwj2ipkfOj-Ym-8" target="xY4XzJ5lwj2ipkfOj-Ym-1">
          <mxGeometry width="160" relative="1" as="geometry">
            <mxPoint x="244" y="382" as="sourcePoint" />
            <mxPoint x="371" y="258" as="targetPoint" />
          </mxGeometry>
        </mxCell>
        <mxCell id="xY4XzJ5lwj2ipkfOj-Ym-11" value="&amp;lt;&amp;lt;interface&amp;gt;&amp;gt;&lt;br&gt;ProjectRequestToDescriptionConverter" style="rounded=0;whiteSpace=wrap;html=1;sketch=1;hachureGap=4;jiggle=2;curveFitting=1;fontFamily=Architects Daughter;fontSource=https%3A%2F%2Ffonts.googleapis.com%2Fcss%3Ffamily%3DArchitects%2BDaughter;fontSize=20;" vertex="1" parent="1">
          <mxGeometry x="1090" y="540" width="460" height="70" as="geometry" />
        </mxCell>
        <mxCell id="xY4XzJ5lwj2ipkfOj-Ym-12" value="Use" style="endArrow=open;endSize=12;dashed=1;html=1;rounded=0;sketch=1;hachureGap=4;jiggle=2;curveFitting=1;fontFamily=Architects Daughter;fontSource=https%3A%2F%2Ffonts.googleapis.com%2Fcss%3Ffamily%3DArchitects%2BDaughter;fontSize=16;sourcePerimeterSpacing=8;targetPerimeterSpacing=8;curved=1;" edge="1" parent="1" source="xY4XzJ5lwj2ipkfOj-Ym-7" target="xY4XzJ5lwj2ipkfOj-Ym-11">
          <mxGeometry width="160" relative="1" as="geometry">
            <mxPoint x="479" y="258" as="sourcePoint" />
            <mxPoint x="751" y="442" as="targetPoint" />
          </mxGeometry>
        </mxCell>
        <mxCell id="xY4XzJ5lwj2ipkfOj-Ym-13" value="initializr-generator" style="rounded=0;whiteSpace=wrap;html=1;sketch=1;hachureGap=4;jiggle=2;curveFitting=1;fontFamily=Architects Daughter;fontSource=https%3A%2F%2Ffonts.googleapis.com%2Fcss%3Ffamily%3DArchitects%2BDaughter;fontSize=20;fillColor=#d5e8d4;strokeColor=#82b366;" vertex="1" parent="1">
          <mxGeometry x="160" y="740" width="190" height="70" as="geometry" />
        </mxCell>
        <mxCell id="xY4XzJ5lwj2ipkfOj-Ym-15" value="initializr-web" style="rounded=0;whiteSpace=wrap;html=1;sketch=1;hachureGap=4;jiggle=2;curveFitting=1;fontFamily=Architects Daughter;fontSource=https%3A%2F%2Ffonts.googleapis.com%2Fcss%3Ffamily%3DArchitects%2BDaughter;fontSize=20;" vertex="1" parent="1">
          <mxGeometry x="395" y="740" width="190" height="70" as="geometry" />
        </mxCell>
      </root>
    </mxGraphModel>
  </diagram>
</mxfile>
